# xmcd CD database file
#
# Track frame offsets:
#	150
#	21150
#	52075
#	89187
#	115150
#	150425
#	182150
#	208200
#
# Disc length: 3113 seconds
#
# Revision: 1
# Processed by: cddbd v1.5.2PL0 Copyright (c) Steve Scherf et al.
# Submitted via: CDex 1.70beta2
#
DISCID=6f0c2708
DTITLE=Kanté Manfila - Kankan Blues Chapter II
DYEAR=1994
DGENRE=
TTITLE0=Agne Anko
TTITLE1=N'na Niwalé
TTITLE2=Thienta
TTITLE3=Natha
TTITLE4=Samadi
TTITLE5=Dakan
TTITLE6=Bi-Moh
TTITLE7=Fama Allah
EXTD=YEAR: 1994
EXTT0=
EXTT1=
EXTT2=
EXTT3=
EXTT4=
EXTT5=
EXTT6=
EXTT7=
PLAYORDER=
